<?xml version="1.0" standalone="no"?>
<!DOCTYPE svg PUBLIC "-//W3C//DTD SVG 20010904//EN"
 "http://www.w3.org/TR/2001/REC-SVG-20010904/DTD/svg10.dtd">
<svg version="1.0" xmlns="http://www.w3.org/2000/svg"
 width="320.000000pt" height="320.000000pt" viewBox="0 0 320.000000 320.000000"
 preserveAspectRatio="xMidYMid meet">
<metadata>
Created by potrace 1.14, written by Peter Selinger 2001-2017
</metadata>
<g transform="translate(0.000000,320.000000) scale(0.100000,-0.100000)"
fill="#000000" stroke="none">
<path d="M1628 2964 c-3 -3 -30 -7 -61 -9 -115 -9 -256 -49 -359 -102 -114
-58 -189 -118 -267 -213 -11 -14 -25 -30 -31 -37 -15 -18 -85 -154 -94 -183
-5 -14 -9 -27 -10 -30 -7 -17 -27 -123 -31 -165 -9 -82 -7 -235 4 -319 12 -90
5 -110 -36 -100 -14 4 -40 -1 -63 -11 -75 -34 -102 -145 -73 -300 7 -38 15
-77 16 -85 6 -31 65 -137 110 -196 45 -60 70 -76 133 -89 28 -5 33 -11 39 -48
5 -23 9 -44 10 -47 1 -3 8 -27 17 -55 30 -94 72 -186 112 -245 59 -88 133
-161 210 -210 30 -19 55 -38 56 -41 0 -6 -43 -16 -106 -24 -12 -2 -39 -6 -60
-10 -22 -4 -57 -9 -79 -11 -54 -6 -90 -12 -90 -14 0 -3 -53 -10 -115 -15 -30
-2 -55 -4 -55 -5 0 -1 -10 -3 -23 -6 -13 -2 -33 -9 -45 -16 -12 -7 -27 -13
-34 -14 -11 -2 -108 -94 -99 -94 3 0 -2 -17 -11 -37 -8 -21 -17 -47 -19 -58
-2 -11 -7 -31 -10 -45 -3 -14 -6 -33 -6 -42 1 -10 -3 -18 -8 -18 -5 0 -7 -7
-4 -15 4 -8 1 -21 -5 -29 -6 -7 -8 -16 -4 -19 3 -4 501 -7 1106 -7 l1099 0 -7
28 c-7 29 -13 52 -21 92 -26 117 -48 164 -100 210 -55 48 -99 64 -199 74 -22
2 -53 6 -70 9 -16 3 -52 9 -80 12 -69 9 -89 12 -122 19 -15 3 -46 8 -69 11
-22 3 -60 9 -85 13 l-44 8 43 24 c23 13 42 28 42 34 0 5 3 6 7 3 3 -4 17 5 30
19 12 14 23 22 23 18 0 -9 63 60 110 121 39 51 103 170 103 193 0 6 4 12 9 12
4 0 7 3 6 7 0 5 2 15 5 23 4 8 13 40 21 70 29 109 36 128 49 127 63 -2 112 33
181 129 31 44 64 107 64 124 1 3 5 17 11 33 18 46 22 78 26 174 2 51 -1 95 -6
99 -5 3 -7 10 -3 15 5 9 -17 52 -40 75 -6 5 -25 17 -42 26 -26 13 -36 13 -62
3 -29 -13 -30 -12 -36 17 -3 17 -4 34 -1 38 8 13 17 139 17 235 0 121 -7 191
-26 260 -25 93 -84 220 -114 243 -9 7 -16 15 -14 18 3 6 -12 24 -72 85 -92 94
-247 184 -378 218 -4 1 -22 7 -40 12 -30 9 -59 13 -170 23 -20 2 -40 6 -46 10
-5 3 -12 3 -14 0z"/>
</g>
</svg>
